<svg id="svg" version="1.1" xmlns="http://www.w3.org/2000/svg" xmlns:xlink="http://www.w3.org/1999/xlink" width="400" height="400" viewBox="0, 0, 400,400"><g id="svgg"><path id="path0" d="M339.633 200.422 C 338.706 201.094,334.494 205.040,330.273 209.191 C 326.053 213.343,321.770 217.518,320.755 218.470 C 316.606 222.360,314.476 224.277,312.695 225.719 C 311.664 226.554,310.590 227.458,310.310 227.727 C 310.029 227.996,308.900 228.933,307.800 229.808 C 306.700 230.684,305.710 231.491,305.600 231.602 C 305.317 231.889,300.790 235.718,299.650 236.636 C 299.127 237.056,298.137 237.911,297.450 238.535 C 296.762 239.159,295.570 240.148,294.800 240.732 C 294.030 241.317,293.310 241.892,293.200 242.011 C 292.986 242.242,287.928 246.445,286.600 247.495 C 286.160 247.844,285.252 248.595,284.581 249.164 C 283.911 249.734,282.852 250.560,282.227 251.000 C 279.442 252.962,277.099 254.798,273.000 258.229 C 268.920 261.644,260.447 268.768,258.600 270.336 C 256.023 272.523,246.167 281.026,246.000 281.206 C 245.890 281.324,244.637 282.406,243.215 283.610 C 241.794 284.815,240.251 286.160,239.786 286.600 C 239.322 287.040,237.349 288.840,235.401 290.600 C 228.744 296.616,227.037 298.205,221.437 303.600 C 212.499 312.212,208.602 316.128,201.377 323.760 C 193.315 332.277,194.377 331.125,191.198 334.800 C 189.771 336.450,187.584 338.914,186.338 340.276 C 174.860 352.821,160.235 375.265,155.423 387.718 C 153.248 393.347,153.293 392.800,155.000 392.800 C 155.978 392.800,156.400 392.981,156.400 393.400 C 156.400 393.867,156.933 394.000,158.800 394.000 C 160.133 394.000,161.200 394.178,161.200 394.400 C 161.200 394.620,162.179 394.800,163.376 394.800 C 164.573 394.800,165.664 394.980,165.800 395.200 C 165.936 395.420,167.477 395.600,169.224 395.600 C 171.780 395.600,172.400 395.717,172.400 396.200 C 172.400 396.691,173.089 396.800,176.200 396.800 C 178.467 396.800,180.000 396.961,180.000 397.200 C 180.000 397.461,186.800 397.600,199.600 397.600 C 212.400 397.600,219.200 397.461,219.200 397.200 C 219.200 396.961,220.733 396.800,223.000 396.800 C 226.111 396.800,226.800 396.691,226.800 396.200 C 226.800 395.717,227.422 395.600,230.000 395.600 C 231.867 395.600,233.200 395.433,233.200 395.200 C 233.200 394.978,234.267 394.800,235.600 394.800 C 236.933 394.800,238.000 394.622,238.000 394.400 C 238.000 394.180,238.996 394.000,240.213 394.000 C 241.810 394.000,242.489 393.833,242.655 393.400 C 242.812 392.993,243.450 392.800,244.643 392.800 C 245.609 392.800,246.400 392.620,246.400 392.400 C 246.400 392.180,247.199 392.000,248.176 392.000 C 249.153 392.000,250.064 391.820,250.200 391.600 C 250.336 391.380,251.162 391.200,252.036 391.200 C 253.080 391.200,253.704 390.994,253.855 390.600 C 253.997 390.230,254.605 390.000,255.443 390.000 C 256.189 390.000,256.800 389.820,256.800 389.600 C 256.800 389.380,257.430 389.200,258.200 389.200 C 258.970 389.200,259.600 389.020,259.600 388.800 C 259.600 388.580,260.230 388.400,261.000 388.400 C 261.978 388.400,262.400 388.219,262.400 387.800 C 262.400 387.381,262.822 387.200,263.800 387.200 C 264.570 387.200,265.200 387.020,265.200 386.800 C 265.200 386.580,265.830 386.400,266.600 386.400 C 267.370 386.400,268.000 386.220,268.000 386.000 C 268.000 385.780,268.546 385.600,269.213 385.600 C 269.921 385.600,270.521 385.351,270.655 385.000 C 270.782 384.670,271.316 384.400,271.843 384.400 C 272.369 384.400,272.800 384.220,272.800 384.000 C 272.800 383.780,273.430 383.600,274.200 383.600 C 274.970 383.600,275.600 383.420,275.600 383.200 C 275.600 382.980,275.966 382.800,276.413 382.800 C 276.859 382.800,277.329 382.530,277.455 382.200 C 277.582 381.870,278.026 381.600,278.443 381.600 C 278.859 381.600,279.200 381.420,279.200 381.200 C 279.200 380.980,279.830 380.800,280.600 380.800 C 281.370 380.800,282.000 380.620,282.000 380.400 C 282.000 380.180,282.366 380.000,282.813 380.000 C 283.259 380.000,283.729 379.730,283.855 379.400 C 283.982 379.070,284.516 378.800,285.043 378.800 C 285.569 378.800,286.000 378.620,286.000 378.400 C 286.000 378.180,286.360 378.000,286.800 378.000 C 287.244 378.000,287.600 377.733,287.600 377.400 C 287.600 377.027,287.978 376.800,288.600 376.800 C 289.150 376.800,289.600 376.620,289.600 376.400 C 289.600 376.180,290.050 376.000,290.600 376.000 C 291.150 376.000,291.600 375.820,291.600 375.600 C 291.600 375.380,291.879 375.200,292.219 375.200 C 292.560 375.200,293.255 374.750,293.765 374.200 C 294.275 373.650,295.076 373.200,295.546 373.200 C 296.016 373.200,296.400 373.020,296.400 372.800 C 296.400 372.580,296.760 372.400,297.200 372.400 C 297.644 372.400,298.000 372.133,298.000 371.800 C 298.000 371.442,298.368 371.200,298.912 371.200 C 299.413 371.200,300.083 370.840,300.400 370.400 C 300.717 369.960,301.387 369.600,301.888 369.600 C 302.432 369.600,302.800 369.358,302.800 369.000 C 302.800 368.642,303.168 368.400,303.712 368.400 C 304.213 368.400,304.883 368.040,305.200 367.600 C 305.517 367.160,306.072 366.800,306.432 366.800 C 306.793 366.800,307.426 366.350,307.839 365.800 C 308.252 365.250,308.920 364.800,309.324 364.800 C 310.129 364.800,311.200 363.903,311.200 363.229 C 311.200 362.993,311.568 362.800,312.018 362.800 C 312.468 362.800,313.270 362.395,313.799 361.900 C 315.404 360.400,315.947 360.000,316.383 360.000 C 316.612 360.000,316.800 359.820,316.800 359.600 C 316.800 359.380,316.993 359.200,317.229 359.200 C 317.464 359.200,317.908 358.975,318.215 358.700 C 319.426 357.614,319.977 357.200,320.212 357.200 C 320.537 357.200,321.600 356.128,321.600 355.800 C 321.600 355.297,322.753 354.400,323.400 354.400 C 324.142 354.400,325.200 353.476,325.200 352.829 C 325.200 352.593,325.388 352.400,325.618 352.400 C 326.161 352.400,328.000 350.561,328.000 350.018 C 328.000 349.788,328.410 349.600,328.912 349.600 C 329.413 349.600,330.083 349.240,330.400 348.800 C 330.717 348.360,331.207 348.000,331.488 348.000 C 331.770 348.000,332.000 347.807,332.000 347.571 C 332.000 347.105,332.985 346.000,333.400 346.000 C 333.734 346.000,334.800 344.934,334.800 344.600 C 334.800 344.266,335.866 343.200,336.200 343.200 C 336.534 343.200,337.600 342.134,337.600 341.800 C 337.600 341.466,338.666 340.400,339.000 340.400 C 339.334 340.400,340.400 339.334,340.400 339.000 C 340.400 338.666,341.466 337.600,341.800 337.600 C 342.134 337.600,343.200 336.534,343.200 336.200 C 343.200 335.785,344.305 334.800,344.771 334.800 C 345.007 334.800,345.200 334.638,345.200 334.440 C 345.200 334.242,345.830 333.450,346.600 332.680 C 347.370 331.910,348.000 331.032,348.000 330.728 C 348.000 330.425,348.360 329.917,348.800 329.600 C 349.240 329.283,349.600 328.793,349.600 328.512 C 349.600 328.230,349.788 328.000,350.018 328.000 C 350.538 328.000,352.400 326.172,352.400 325.661 C 352.400 325.455,352.670 325.182,353.000 325.055 C 353.330 324.929,353.600 324.549,353.600 324.213 C 353.600 323.876,353.780 323.600,354.000 323.600 C 354.220 323.600,354.400 323.407,354.400 323.171 C 354.400 322.618,355.418 321.600,355.971 321.600 C 356.207 321.600,356.400 321.227,356.400 320.771 C 356.400 319.970,357.247 318.800,357.827 318.800 C 358.233 318.800,359.172 317.492,359.187 316.907 C 359.194 316.636,359.830 315.766,360.600 314.973 C 361.370 314.180,362.000 313.277,362.000 312.966 C 362.000 312.655,362.180 312.400,362.400 312.400 C 362.620 312.400,362.800 312.149,362.800 311.843 C 362.800 311.536,363.070 311.182,363.400 311.055 C 363.730 310.929,364.000 310.499,364.000 310.101 C 364.000 309.703,364.360 309.117,364.800 308.800 C 365.240 308.483,365.600 307.813,365.600 307.312 C 365.600 306.768,365.842 306.400,366.200 306.400 C 366.533 306.400,366.800 306.044,366.800 305.600 C 366.800 305.160,366.980 304.800,367.200 304.800 C 367.420 304.800,367.600 304.530,367.600 304.200 C 367.600 303.870,367.780 303.600,368.000 303.600 C 368.220 303.600,368.400 303.240,368.400 302.800 C 368.400 302.356,368.667 302.000,369.000 302.000 C 369.358 302.000,369.600 301.632,369.600 301.088 C 369.600 300.587,369.960 299.917,370.400 299.600 C 370.840 299.283,371.200 298.613,371.200 298.112 C 371.200 297.568,371.442 297.200,371.800 297.200 C 372.173 297.200,372.400 296.822,372.400 296.200 C 372.400 295.650,372.580 295.200,372.800 295.200 C 373.020 295.200,373.200 294.840,373.200 294.400 C 373.200 293.960,373.380 293.600,373.600 293.600 C 373.820 293.600,374.000 293.150,374.000 292.600 C 374.000 291.978,374.227 291.600,374.600 291.600 C 374.930 291.600,375.200 291.335,375.200 291.012 C 375.200 290.689,375.560 289.783,376.000 289.000 C 376.440 288.217,376.800 287.221,376.800 286.788 C 376.800 286.354,377.070 286.000,377.400 286.000 C 377.773 286.000,378.000 285.622,378.000 285.000 C 378.000 284.450,378.180 284.000,378.400 284.000 C 378.620 284.000,378.800 283.550,378.800 283.000 C 378.800 282.378,379.027 282.000,379.400 282.000 C 380.204 282.000,380.156 280.996,379.260 279.026 C 378.853 278.132,378.201 276.590,377.812 275.600 C 377.423 274.610,376.955 273.440,376.772 273.000 C 376.590 272.560,376.178 271.390,375.858 270.400 C 375.538 269.410,375.056 268.060,374.788 267.400 C 374.520 266.740,374.161 265.840,373.991 265.400 C 373.678 264.591,372.701 262.234,371.919 260.400 C 371.685 259.850,371.358 259.040,371.193 258.600 C 371.028 258.160,370.422 256.630,369.846 255.200 C 369.269 253.770,368.798 252.375,368.799 252.100 C 368.799 251.825,368.620 251.600,368.400 251.600 C 368.180 251.600,368.000 251.364,368.000 251.075 C 368.000 250.786,367.664 249.841,367.253 248.975 C 366.553 247.500,365.816 245.848,364.588 243.000 C 364.303 242.340,363.498 240.540,362.800 239.000 C 362.102 237.460,361.251 235.570,360.911 234.800 C 360.570 234.030,359.506 231.738,358.546 229.706 C 357.586 227.674,356.800 225.932,356.800 225.835 C 356.800 225.738,356.170 224.295,355.400 222.628 C 354.630 220.961,354.000 219.512,354.000 219.409 C 354.000 219.306,353.550 218.227,353.000 217.011 C 352.450 215.795,351.550 213.805,351.000 212.589 C 350.450 211.373,349.999 210.248,349.997 210.089 C 349.988 209.230,345.811 201.608,344.742 200.500 C 343.148 198.848,341.834 198.827,339.633 200.422 " stroke="none" fill="#1c4c94" fill-rule="evenodd"></path><path id="path1" d="M162.453 142.008 C 161.536 142.672,157.307 146.677,153.055 150.908 C 144.991 158.933,139.434 164.292,137.397 166.010 C 129.352 172.797,126.531 175.156,125.465 175.994 C 124.769 176.541,122.750 178.161,120.977 179.594 C 119.204 181.027,117.044 182.768,116.177 183.461 C 115.310 184.155,112.800 186.196,110.600 187.997 C 108.400 189.798,105.340 192.283,103.800 193.520 C 94.198 201.232,81.747 211.662,76.991 215.977 C 75.886 216.980,73.297 219.240,71.238 221.000 C 69.178 222.760,67.202 224.478,66.846 224.819 C 66.491 225.159,64.677 226.779,62.816 228.419 C 60.954 230.058,58.164 232.588,56.616 234.040 C 55.067 235.491,52.990 237.374,52.000 238.223 C 47.720 241.894,20.440 269.167,18.524 271.690 C 17.906 272.504,17.175 273.177,16.900 273.185 C 16.307 273.203,16.223 275.044,16.800 275.400 C 17.020 275.536,17.200 276.065,17.200 276.575 C 17.200 277.085,17.470 277.726,17.800 278.000 C 18.130 278.274,18.400 278.937,18.400 279.473 C 18.400 280.020,18.575 280.339,18.800 280.200 C 19.027 280.060,19.200 280.396,19.200 280.976 C 19.200 281.589,19.426 282.000,19.763 282.000 C 20.127 282.000,20.252 282.280,20.117 282.795 C 19.985 283.299,20.145 283.681,20.555 283.838 C 20.910 283.974,21.200 284.516,21.200 285.043 C 21.200 285.569,21.380 286.000,21.600 286.000 C 21.820 286.000,22.000 286.360,22.000 286.800 C 22.000 287.244,22.267 287.600,22.600 287.600 C 22.930 287.600,23.200 287.954,23.200 288.388 C 23.200 288.821,23.560 289.817,24.000 290.600 C 24.440 291.383,24.800 292.270,24.800 292.569 C 24.800 292.869,25.070 293.218,25.400 293.345 C 25.730 293.471,26.000 293.941,26.000 294.387 C 26.000 294.834,26.180 295.200,26.400 295.200 C 26.620 295.200,26.800 295.650,26.800 296.200 C 26.800 296.750,26.939 297.200,27.109 297.200 C 27.279 297.200,27.757 297.830,28.172 298.600 C 28.587 299.370,29.078 300.000,29.263 300.000 C 29.448 300.000,29.600 300.276,29.600 300.614 C 29.600 301.281,30.578 302.941,31.697 304.175 C 32.084 304.602,32.400 305.277,32.400 305.675 C 32.400 306.074,32.580 306.400,32.800 306.400 C 33.020 306.400,33.200 306.627,33.200 306.904 C 33.200 307.181,33.628 307.870,34.151 308.433 C 34.673 308.997,35.219 309.830,35.363 310.285 C 35.508 310.739,36.073 311.593,36.619 312.183 C 37.166 312.773,37.492 313.451,37.345 313.689 C 37.185 313.949,37.263 314.009,37.538 313.838 C 37.812 313.669,38.000 313.807,38.000 314.176 C 38.000 314.519,38.180 314.800,38.400 314.800 C 38.620 314.800,38.800 315.070,38.800 315.400 C 38.800 315.730,39.070 316.000,39.400 316.000 C 39.730 316.000,40.000 316.315,40.000 316.700 C 40.001 317.518,41.685 319.600,42.347 319.600 C 42.596 319.600,42.806 319.915,42.813 320.300 C 42.828 321.165,43.729 322.400,44.344 322.400 C 44.595 322.400,44.800 322.670,44.800 323.000 C 44.800 323.330,44.968 323.600,45.173 323.600 C 45.378 323.600,45.669 323.987,45.819 324.459 C 45.969 324.932,47.253 326.474,48.673 327.887 C 50.092 329.300,51.279 330.791,51.310 331.200 C 51.341 331.610,51.554 331.912,51.783 331.872 C 52.012 331.833,52.155 332.025,52.100 332.300 C 52.045 332.575,52.183 332.800,52.407 332.800 C 52.759 332.800,54.738 334.707,56.843 337.077 C 57.196 337.474,57.826 338.080,58.243 338.422 C 58.659 338.765,59.358 339.530,59.795 340.122 C 60.232 340.715,60.817 341.200,61.095 341.200 C 61.373 341.200,61.600 341.335,61.600 341.500 C 61.601 341.916,63.426 344.000,63.789 344.000 C 63.952 344.000,64.439 344.450,64.871 345.000 C 65.304 345.550,65.926 346.000,66.253 346.000 C 66.580 346.000,66.736 346.180,66.600 346.400 C 66.464 346.620,66.436 346.800,66.538 346.800 C 66.640 346.800,68.387 344.325,70.420 341.300 C 73.489 336.736,85.954 319.879,86.762 319.200 C 86.893 319.090,88.167 317.650,89.592 316.000 C 91.018 314.350,92.278 312.910,92.393 312.800 C 92.507 312.690,93.763 311.250,95.183 309.600 C 101.616 302.126,120.908 282.864,131.600 273.239 C 134.130 270.962,136.476 268.806,136.813 268.449 C 137.742 267.465,144.042 261.845,149.200 257.398 C 151.730 255.218,153.890 253.336,154.000 253.217 C 155.695 251.380,179.908 231.110,195.500 218.474 C 196.401 217.744,197.646 216.709,198.269 216.174 C 198.891 215.639,199.532 215.201,199.692 215.200 C 199.944 215.200,209.285 207.511,210.710 206.131 C 210.990 205.860,212.069 204.954,213.106 204.119 C 217.699 200.422,221.801 196.606,231.800 186.733 C 244.892 173.805,245.185 173.649,248.188 177.983 C 248.810 178.880,249.407 179.526,249.515 179.418 C 249.809 179.124,247.689 176.477,246.575 175.747 C 244.227 174.209,242.242 175.613,231.800 186.196 C 224.815 193.277,218.610 199.145,214.986 202.101 C 211.876 204.637,209.374 206.740,204.051 211.293 C 200.398 214.418,199.200 214.659,199.200 212.271 C 199.200 212.079,198.949 211.354,198.642 210.660 C 198.334 209.967,196.972 206.610,195.613 203.200 C 194.254 199.790,192.796 196.237,192.371 195.304 C 191.947 194.372,191.600 193.529,191.600 193.432 C 191.600 193.335,191.079 192.118,190.443 190.728 C 189.807 189.338,188.344 186.040,187.191 183.400 C 186.039 180.760,184.580 177.462,183.948 176.072 C 183.317 174.682,182.800 173.468,182.800 173.374 C 182.800 173.280,182.170 171.839,181.400 170.172 C 180.630 168.505,180.000 167.070,180.000 166.983 C 180.000 166.808,178.564 163.578,176.762 159.699 C 176.123 158.323,175.600 157.115,175.600 157.014 C 175.600 156.769,172.375 149.878,170.299 145.689 C 167.742 140.528,165.771 139.604,162.453 142.008 M249.600 180.062 C 249.600 180.553,252.061 185.273,252.229 185.105 C 252.333 185.001,251.861 183.856,251.180 182.562 C 249.963 180.249,249.600 179.674,249.600 180.062 M252.400 185.858 C 252.400 186.074,252.850 187.183,253.400 188.323 C 253.950 189.463,254.400 190.579,254.400 190.803 C 254.400 191.028,254.559 191.523,254.753 191.905 C 254.948 192.287,255.338 193.095,255.621 193.699 C 256.936 196.514,256.224 194.055,254.603 190.186 C 252.807 185.898,252.400 185.099,252.400 185.858 M256.400 195.351 C 256.400 195.818,257.677 198.457,257.829 198.305 C 258.038 198.095,256.888 195.200,256.595 195.200 C 256.488 195.200,256.400 195.268,256.400 195.351 M258.021 199.025 C 257.992 199.607,259.615 202.919,259.825 202.708 C 259.919 202.615,259.555 201.652,259.018 200.569 C 258.481 199.486,258.033 198.791,258.021 199.025 M260.028 203.505 C 260.013 203.783,260.174 204.323,260.387 204.705 C 260.599 205.087,261.323 206.615,261.995 208.100 C 263.145 210.643,263.987 211.864,263.236 209.900 C 262.415 207.751,260.054 203.045,260.028 203.505 M326.992 211.700 L 323.400 215.400 327.100 211.808 C 330.536 208.472,330.982 208.000,330.692 208.000 C 330.632 208.000,328.967 209.665,326.992 211.700 M263.619 211.374 C 263.590 211.940,265.265 215.268,265.473 215.060 C 265.573 214.960,265.201 214.006,264.646 212.939 C 264.091 211.873,263.629 211.168,263.619 211.374 M265.616 215.839 C 265.607 216.080,265.856 216.800,266.169 217.439 C 267.110 219.361,269.200 224.009,269.200 224.181 C 269.200 224.269,269.799 225.660,270.531 227.271 C 271.263 228.882,272.098 230.791,272.385 231.513 C 272.672 232.235,272.983 232.750,273.076 232.657 C 273.249 232.485,267.386 218.638,266.259 216.558 C 265.914 215.921,265.625 215.597,265.616 215.839 M273.200 233.539 C 273.200 233.798,273.359 234.323,273.553 234.705 C 274.088 235.756,274.736 237.268,275.203 238.555 C 275.434 239.191,275.709 239.624,275.815 239.519 C 275.996 239.337,273.802 233.669,273.392 233.258 C 273.286 233.153,273.200 233.279,273.200 233.539 M276.000 240.315 C 276.000 240.561,276.205 241.266,276.456 241.881 C 277.550 244.564,277.910 245.483,278.380 246.800 C 279.684 250.446,280.131 251.312,280.829 251.535 C 281.277 251.678,281.262 251.554,280.756 250.958 C 280.401 250.541,279.259 247.950,278.218 245.200 C 276.320 240.186,276.000 239.482,276.000 240.315 " stroke="none" fill="#5cb4fb" fill-rule="evenodd"></path><path id="path2" d="M243.090 176.184 C 241.762 176.877,242.856 175.854,231.940 186.611 C 221.767 196.638,217.680 200.437,213.106 204.119 C 212.069 204.954,210.990 205.860,210.710 206.131 C 209.285 207.511,199.944 215.200,199.692 215.200 C 199.532 215.201,198.891 215.639,198.269 216.174 C 197.646 216.709,196.401 217.744,195.500 218.474 C 179.908 231.110,155.695 251.380,154.000 253.217 C 153.890 253.336,151.730 255.218,149.200 257.398 C 144.042 261.845,137.742 267.465,136.813 268.449 C 136.476 268.806,134.130 270.962,131.600 273.239 C 120.908 282.864,101.616 302.126,95.183 309.600 C 93.763 311.250,92.507 312.690,92.393 312.800 C 92.278 312.910,91.018 314.350,89.592 316.000 C 88.167 317.650,86.893 319.090,86.762 319.200 C 85.999 319.841,73.557 336.635,70.612 341.000 C 68.682 343.860,66.914 346.145,66.682 346.077 C 65.914 345.852,68.181 348.445,69.350 349.128 C 69.982 349.498,71.587 350.835,72.916 352.100 C 74.244 353.365,75.572 354.400,75.866 354.400 C 76.160 354.400,76.400 354.580,76.400 354.800 C 76.400 355.020,76.670 355.200,77.000 355.200 C 77.330 355.200,77.600 355.393,77.600 355.629 C 77.600 356.147,78.604 357.200,79.099 357.200 C 79.295 357.200,80.162 357.830,81.027 358.600 C 81.892 359.370,82.828 360.000,83.107 360.000 C 83.386 360.000,84.226 360.630,84.974 361.400 C 85.721 362.170,86.637 362.800,87.009 362.800 C 87.381 362.800,88.039 363.250,88.471 363.800 C 88.904 364.350,89.562 364.800,89.934 364.800 C 90.306 364.800,90.948 365.250,91.361 365.800 C 91.774 366.350,92.364 366.800,92.673 366.800 C 92.981 366.800,93.620 367.160,94.092 367.600 C 94.564 368.040,95.258 368.400,95.633 368.400 C 96.008 368.400,96.418 368.670,96.545 369.000 C 96.671 369.330,97.051 369.600,97.387 369.600 C 97.724 369.600,98.000 369.780,98.000 370.000 C 98.000 370.220,98.270 370.400,98.600 370.400 C 98.930 370.400,99.200 370.580,99.200 370.800 C 99.200 371.020,99.541 371.200,99.957 371.200 C 100.374 371.200,100.818 371.470,100.945 371.800 C 101.071 372.130,101.541 372.400,101.987 372.400 C 102.434 372.400,102.800 372.580,102.800 372.800 C 102.800 373.020,103.250 373.200,103.800 373.200 C 104.350 373.200,104.800 373.352,104.800 373.537 C 104.800 373.722,105.430 374.213,106.200 374.628 C 106.970 375.043,107.600 375.521,107.600 375.691 C 107.600 375.861,108.050 376.000,108.600 376.000 C 109.150 376.000,109.600 376.180,109.600 376.400 C 109.600 376.620,109.941 376.800,110.357 376.800 C 110.774 376.800,111.218 377.070,111.345 377.400 C 111.471 377.730,111.941 378.000,112.387 378.000 C 112.834 378.000,113.200 378.180,113.200 378.400 C 113.200 378.620,113.650 378.800,114.200 378.800 C 114.750 378.800,115.201 378.935,115.201 379.100 C 115.202 379.265,116.057 379.728,117.101 380.129 C 118.146 380.529,119.313 381.024,119.695 381.229 C 120.077 381.433,120.662 381.600,120.995 381.600 C 121.328 381.600,121.600 381.745,121.600 381.923 C 121.600 382.372,124.482 383.600,125.534 383.600 C 126.010 383.600,126.400 383.780,126.400 384.000 C 126.400 384.220,126.773 384.400,127.229 384.400 C 127.684 384.400,128.327 384.670,128.657 385.000 C 128.987 385.330,129.694 385.600,130.229 385.600 C 130.763 385.600,131.200 385.780,131.200 386.000 C 131.200 386.220,131.830 386.400,132.600 386.400 C 133.370 386.400,134.000 386.580,134.000 386.800 C 134.000 387.020,134.611 387.200,135.357 387.200 C 136.195 387.200,136.803 387.430,136.945 387.800 C 137.079 388.151,137.679 388.400,138.387 388.400 C 139.054 388.400,139.600 388.580,139.600 388.800 C 139.600 389.020,140.230 389.200,141.000 389.200 C 141.770 389.200,142.400 389.380,142.400 389.600 C 142.400 389.820,142.953 390.000,143.629 390.000 C 144.304 390.000,145.127 390.270,145.457 390.600 C 145.787 390.930,146.764 391.200,147.629 391.200 C 148.493 391.200,149.200 391.380,149.200 391.600 C 149.200 391.820,150.010 392.000,151.000 392.000 C 151.990 392.000,152.800 392.180,152.800 392.400 C 152.800 393.762,153.701 392.212,155.182 388.300 C 158.803 378.737,168.615 362.484,178.308 349.992 C 181.331 346.096,184.298 342.505,186.338 340.276 C 187.584 338.914,189.771 336.450,191.198 334.800 C 194.377 331.125,193.315 332.277,201.377 323.760 C 208.602 316.128,212.499 312.212,221.437 303.600 C 227.037 298.205,228.744 296.616,235.401 290.600 C 237.349 288.840,239.322 287.040,239.786 286.600 C 240.251 286.160,241.794 284.815,243.215 283.610 C 244.637 282.406,245.890 281.324,246.000 281.206 C 246.167 281.026,256.023 272.523,258.600 270.336 C 272.488 258.544,278.480 253.640,282.227 251.000 C 282.852 250.560,283.911 249.734,284.581 249.164 C 285.252 248.595,286.160 247.844,286.600 247.495 C 287.928 246.445,292.986 242.242,293.200 242.011 C 293.310 241.892,294.030 241.317,294.800 240.732 C 295.570 240.148,296.765 239.159,297.456 238.535 C 298.853 237.272,301.690 234.894,304.025 233.026 C 304.869 232.352,305.568 231.648,305.579 231.463 C 305.591 231.277,304.663 231.907,303.519 232.863 C 295.797 239.308,288.098 245.726,287.534 246.189 C 287.167 246.489,285.505 247.853,283.839 249.220 C 280.745 251.760,279.600 251.978,279.600 250.031 C 279.600 249.662,279.457 249.189,279.282 248.980 C 279.107 248.771,278.726 247.880,278.436 247.000 C 278.145 246.120,277.680 244.860,277.401 244.200 C 277.122 243.540,276.672 242.370,276.400 241.600 C 276.128 240.830,275.645 239.570,275.326 238.800 C 275.007 238.030,274.602 237.040,274.426 236.600 C 274.251 236.160,273.925 235.350,273.701 234.800 C 273.478 234.250,272.970 232.990,272.571 232.000 C 272.173 231.010,271.251 228.882,270.523 227.271 C 269.796 225.660,269.200 224.269,269.200 224.181 C 269.200 224.092,268.644 222.801,267.965 221.310 C 267.286 219.820,266.458 217.970,266.125 217.200 C 265.489 215.727,264.641 213.862,262.214 208.600 C 261.403 206.840,260.592 205.040,260.412 204.600 C 260.233 204.160,259.634 202.810,259.083 201.600 C 258.531 200.390,257.774 198.680,257.400 197.800 C 256.162 194.884,255.147 192.609,254.771 191.905 C 254.567 191.523,254.400 191.033,254.400 190.816 C 254.400 190.599,253.924 189.382,253.342 188.111 C 247.919 176.273,246.372 174.472,243.090 176.184 M339.531 199.899 C 336.558 202.354,334.739 204.069,329.003 209.823 C 325.702 213.136,321.358 217.411,319.352 219.323 C 317.345 221.235,315.815 222.797,315.952 222.792 C 316.294 222.782,321.194 218.130,330.273 209.195 C 341.154 198.487,342.196 197.861,344.742 200.500 C 345.811 201.608,349.988 209.230,349.997 210.089 C 349.999 210.248,350.450 211.373,351.000 212.589 C 351.550 213.805,352.450 215.795,353.000 217.011 C 353.550 218.227,354.000 219.306,354.000 219.409 C 354.000 219.512,354.630 220.961,355.400 222.628 C 356.170 224.295,356.800 225.738,356.800 225.835 C 356.800 225.932,357.586 227.674,358.546 229.706 C 359.506 231.738,360.570 234.030,360.911 234.800 C 361.251 235.570,362.102 237.460,362.800 239.000 C 363.498 240.540,364.324 242.385,364.635 243.100 C 364.946 243.815,365.494 245.075,365.853 245.900 C 366.212 246.725,366.842 248.109,367.253 248.975 C 367.664 249.841,368.000 250.786,368.000 251.075 C 368.000 251.364,368.180 251.600,368.400 251.600 C 368.620 251.600,368.799 251.825,368.799 252.100 C 368.798 252.375,369.269 253.770,369.846 255.200 C 370.422 256.630,371.028 258.160,371.193 258.600 C 371.358 259.040,371.693 259.850,371.938 260.400 C 372.183 260.950,372.572 261.920,372.803 262.555 C 373.034 263.191,373.301 263.633,373.396 263.537 C 373.756 263.177,369.341 252.434,363.725 240.000 C 363.178 238.790,362.490 237.260,362.195 236.600 C 361.900 235.940,360.676 233.240,359.475 230.600 C 356.130 223.247,355.849 222.611,353.208 216.400 C 345.975 199.385,343.609 196.531,339.531 199.899 M313.968 224.133 C 312.649 225.110,308.978 228.263,307.422 229.755 L 305.800 231.310 307.800 229.763 C 308.900 228.913,310.029 227.996,310.310 227.727 C 310.742 227.312,314.258 224.462,314.767 224.114 C 314.858 224.051,314.858 223.925,314.766 223.833 C 314.674 223.741,314.315 223.876,313.968 224.133 M373.612 264.433 C 373.605 264.782,373.723 265.190,373.874 265.341 C 374.149 265.615,374.696 267.030,375.833 270.400 C 376.851 273.418,378.569 277.257,378.249 275.800 C 377.624 272.950,373.636 263.175,373.612 264.433 M378.427 277.200 C 378.426 277.530,378.690 278.149,379.013 278.576 C 379.760 279.564,379.752 278.915,379.000 277.600 C 378.668 277.020,378.428 276.852,378.427 277.200 " stroke="none" fill="#3c8cd4" fill-rule="evenodd"></path><path id="path3" d="M180.200 2.000 C 180.064 2.220,178.354 2.400,176.400 2.400 C 174.446 2.400,172.736 2.580,172.600 2.800 C 172.464 3.020,170.913 3.200,169.153 3.200 C 167.371 3.200,166.051 3.359,166.174 3.558 C 166.502 4.088,165.387 4.400,163.167 4.400 C 162.085 4.400,161.200 4.580,161.200 4.800 C 161.200 5.020,160.246 5.200,159.080 5.200 C 157.914 5.200,156.779 5.381,156.557 5.603 C 156.335 5.825,155.402 6.050,154.482 6.103 C 153.562 6.156,152.723 6.425,152.617 6.700 C 152.508 6.984,151.738 7.200,150.836 7.200 C 149.962 7.200,149.136 7.380,149.000 7.600 C 148.864 7.820,148.054 8.000,147.200 8.000 C 146.346 8.000,145.536 8.180,145.400 8.400 C 145.264 8.620,144.618 8.800,143.964 8.800 C 143.276 8.800,142.678 9.053,142.545 9.400 C 142.403 9.770,141.795 10.000,140.957 10.000 C 140.211 10.000,139.600 10.180,139.600 10.400 C 139.600 10.620,138.985 10.800,138.233 10.800 C 137.482 10.800,136.807 10.974,136.733 11.187 C 136.660 11.400,136.015 11.619,135.300 11.672 C 134.557 11.728,134.000 11.991,134.000 12.285 C 134.000 12.591,133.511 12.800,132.795 12.800 C 132.132 12.800,131.277 12.958,130.895 13.151 C 128.879 14.170,127.103 14.787,126.773 14.583 C 126.568 14.456,126.400 14.633,126.400 14.976 C 126.400 15.400,126.022 15.600,125.224 15.600 C 124.577 15.600,123.936 15.780,123.800 16.000 C 123.664 16.220,123.191 16.400,122.748 16.400 C 122.305 16.400,121.671 16.672,121.339 17.004 C 121.007 17.336,120.589 17.517,120.410 17.406 C 120.230 17.295,119.981 17.474,119.854 17.802 C 119.728 18.131,119.295 18.400,118.893 18.400 C 118.490 18.400,117.918 18.625,117.621 18.900 C 117.257 19.238,117.169 19.247,117.348 18.927 C 117.517 18.626,117.177 18.672,116.407 19.057 C 115.743 19.388,115.200 19.820,115.200 20.017 C 115.200 20.214,114.953 20.280,114.652 20.164 C 114.350 20.049,113.823 20.234,113.480 20.577 C 113.137 20.920,112.585 21.200,112.252 21.200 C 111.919 21.200,111.536 21.380,111.400 21.600 C 111.264 21.820,110.793 22.000,110.353 22.000 C 109.913 22.000,109.665 22.182,109.802 22.403 C 110.065 22.829,108.414 23.632,107.900 23.329 C 107.735 23.232,107.600 23.343,107.600 23.576 C 107.600 23.809,107.227 24.000,106.771 24.000 C 105.886 24.000,104.800 24.866,104.800 25.571 C 104.800 25.807,104.350 26.000,103.800 26.000 C 103.250 26.000,102.800 26.180,102.800 26.400 C 102.800 26.620,102.485 26.806,102.100 26.813 C 101.715 26.820,101.058 27.084,100.641 27.400 C 100.224 27.716,99.729 27.880,99.541 27.764 C 99.353 27.648,99.200 27.833,99.200 28.176 C 99.200 28.519,98.930 28.800,98.600 28.800 C 98.270 28.800,98.000 28.936,98.000 29.102 C 98.000 29.412,95.719 30.557,95.000 30.608 C 94.780 30.624,94.645 30.853,94.700 31.118 C 94.755 31.383,94.530 31.600,94.200 31.600 C 93.870 31.600,93.600 31.780,93.600 32.000 C 93.600 32.220,93.285 32.406,92.900 32.413 C 92.035 32.428,90.800 33.329,90.800 33.944 C 90.800 34.195,90.390 34.400,89.888 34.400 C 89.387 34.400,88.717 34.760,88.400 35.200 C 88.083 35.640,87.497 36.000,87.099 36.000 C 86.701 36.000,86.271 36.270,86.145 36.600 C 86.018 36.930,85.653 37.200,85.334 37.200 C 85.014 37.200,84.852 37.361,84.974 37.557 C 85.095 37.754,84.738 38.029,84.181 38.169 C 83.623 38.309,83.274 38.596,83.404 38.807 C 83.535 39.018,83.394 39.096,83.092 38.980 C 82.782 38.861,82.141 39.294,81.619 39.976 C 81.110 40.639,80.546 41.090,80.365 40.978 C 80.184 40.866,79.125 41.681,78.013 42.787 C 76.900 43.894,75.711 44.800,75.371 44.800 C 75.031 44.800,74.864 44.980,75.000 45.200 C 75.136 45.420,74.989 45.600,74.675 45.600 C 74.360 45.600,73.564 46.230,72.906 47.000 C 72.248 47.770,71.579 48.400,71.419 48.400 C 71.259 48.400,70.771 48.805,70.334 49.300 C 69.897 49.795,69.664 49.930,69.817 49.600 C 69.969 49.270,69.647 49.495,69.100 50.100 C 68.554 50.705,67.933 51.200,67.721 51.200 C 67.509 51.200,67.094 51.650,66.800 52.200 C 66.506 52.750,66.132 53.200,65.970 53.200 C 65.477 53.200,56.000 62.693,56.000 63.187 C 56.000 63.440,55.852 63.556,55.671 63.444 C 55.361 63.252,54.000 64.549,54.000 65.035 C 54.000 65.394,51.716 67.582,51.533 67.399 C 51.442 67.309,51.340 67.602,51.306 68.051 C 51.249 68.815,49.367 70.798,48.700 70.800 C 48.535 70.800,48.400 70.993,48.400 71.229 C 48.400 71.782,47.382 72.800,46.829 72.800 C 46.593 72.800,46.421 72.935,46.447 73.100 C 46.580 73.939,46.351 74.417,45.938 74.162 C 45.673 73.998,45.584 74.051,45.730 74.287 C 46.019 74.754,44.498 76.652,43.956 76.500 C 43.760 76.445,43.600 76.670,43.600 77.000 C 43.600 77.330,43.420 77.600,43.200 77.600 C 42.980 77.600,42.800 77.857,42.800 78.172 C 42.800 78.486,42.170 79.411,41.400 80.227 C 40.630 81.044,40.000 82.047,40.000 82.456 C 40.000 82.865,39.758 83.200,39.463 83.200 C 39.167 83.200,38.509 84.010,38.000 85.000 C 37.491 85.990,36.822 86.800,36.514 86.800 C 36.205 86.800,36.055 86.965,36.180 87.168 C 36.305 87.370,36.136 87.807,35.804 88.139 C 35.472 88.471,35.200 88.936,35.200 89.171 C 35.200 89.407,35.020 89.600,34.800 89.600 C 34.580 89.600,34.400 89.876,34.400 90.213 C 34.400 90.549,34.131 90.928,33.802 91.054 C 33.474 91.181,33.305 91.446,33.428 91.645 C 33.550 91.843,33.369 92.114,33.025 92.246 C 32.681 92.378,32.400 92.874,32.400 93.348 C 32.400 93.822,31.950 94.548,31.400 94.961 C 30.850 95.374,30.400 96.036,30.400 96.432 C 30.400 96.829,30.220 97.264,30.000 97.400 C 29.780 97.536,29.600 97.905,29.600 98.219 C 29.600 98.969,28.351 100.417,27.929 100.156 C 27.748 100.044,27.600 100.413,27.600 100.976 C 27.600 101.539,27.420 102.000,27.200 102.000 C 26.980 102.000,26.800 102.349,26.800 102.776 C 26.800 103.203,26.620 103.664,26.400 103.800 C 26.180 103.936,26.000 104.397,26.000 104.824 C 26.000 105.251,25.730 105.600,25.400 105.600 C 25.027 105.600,24.800 105.978,24.800 106.600 C 24.800 107.150,24.620 107.600,24.400 107.600 C 24.180 107.600,24.000 107.945,24.000 108.367 C 24.000 108.788,23.865 109.193,23.700 109.267 C 23.227 109.477,22.000 111.856,22.000 112.562 C 22.000 112.913,21.820 113.200,21.600 113.200 C 21.380 113.200,21.200 113.631,21.200 114.157 C 21.200 114.684,20.930 115.218,20.600 115.345 C 20.270 115.471,20.000 115.851,20.000 116.187 C 20.000 116.524,19.820 116.800,19.600 116.800 C 19.380 116.800,19.200 117.250,19.200 117.800 C 19.200 118.350,19.020 118.800,18.800 118.800 C 18.580 118.800,18.400 119.237,18.400 119.771 C 18.400 120.306,18.175 120.981,17.900 121.271 C 17.625 121.562,17.339 122.160,17.263 122.600 C 17.188 123.040,16.963 123.460,16.763 123.533 C 16.564 123.607,16.400 124.001,16.400 124.410 C 16.400 124.818,16.220 125.264,16.000 125.400 C 15.780 125.536,15.600 126.177,15.600 126.824 C 15.600 127.471,15.458 128.000,15.283 128.000 C 15.109 128.000,14.683 128.626,14.336 129.391 C 13.975 130.188,13.897 130.675,14.153 130.532 C 14.399 130.395,14.375 130.525,14.100 130.821 C 13.825 131.118,13.600 131.785,13.600 132.304 C 13.600 132.831,13.423 133.138,13.200 133.000 C 12.958 132.851,12.800 133.396,12.800 134.376 C 12.800 135.462,12.634 135.967,12.300 135.900 C 12.018 135.844,11.774 136.236,11.739 136.800 C 11.706 137.350,11.661 138.036,11.639 138.324 C 11.618 138.612,11.420 138.736,11.200 138.600 C 10.953 138.448,10.800 139.129,10.800 140.376 C 10.800 141.489,10.620 142.400,10.400 142.400 C 10.180 142.400,10.000 143.030,10.000 143.800 C 10.000 144.778,9.819 145.200,9.400 145.200 C 8.957 145.200,8.800 145.663,8.800 146.967 C 8.800 147.938,8.629 148.793,8.420 148.867 C 8.211 148.940,7.996 149.765,7.942 150.700 C 7.888 151.635,7.699 152.400,7.522 152.400 C 7.345 152.400,7.200 153.300,7.200 154.400 C 7.200 155.797,7.040 156.400,6.668 156.400 C 6.299 156.400,6.109 157.100,6.045 158.700 C 5.995 159.965,5.784 161.171,5.577 161.380 C 5.072 161.889,5.093 164.800,5.602 164.800 C 5.823 164.800,7.398 163.617,9.102 162.170 C 10.806 160.724,16.790 155.741,22.400 151.097 C 28.010 146.453,34.580 141.014,37.000 139.011 C 39.420 137.008,44.986 132.406,49.368 128.784 C 60.807 119.332,63.458 116.930,74.400 106.115 C 85.641 95.004,85.378 95.230,87.094 95.213 C 89.528 95.189,92.820 99.990,96.788 109.353 C 99.043 114.672,100.976 119.150,101.903 121.201 C 109.765 138.581,120.258 163.609,122.028 169.200 C 124.181 176.002,124.357 176.151,127.200 173.586 C 128.410 172.495,129.547 171.601,129.727 171.601 C 129.907 171.600,130.627 171.005,131.327 170.277 C 132.027 169.549,133.319 168.424,134.197 167.777 C 135.076 167.130,136.171 166.240,136.631 165.800 C 137.092 165.360,139.510 163.110,142.005 160.800 C 144.500 158.490,150.016 153.140,154.263 148.912 C 167.139 136.092,167.436 136.198,176.279 156.800 C 177.178 158.895,178.822 162.506,179.236 163.295 C 179.436 163.677,179.600 164.262,179.600 164.595 C 179.600 164.928,179.780 165.200,180.000 165.200 C 180.220 165.200,180.400 165.472,180.400 165.805 C 180.400 166.138,180.571 166.723,180.781 167.105 C 180.990 167.487,181.458 168.520,181.820 169.400 C 182.183 170.280,182.931 171.990,183.483 173.200 C 184.034 174.410,184.627 175.760,184.800 176.200 C 184.973 176.640,185.566 177.990,186.118 179.200 C 187.124 181.404,188.429 184.353,189.392 186.600 C 189.675 187.260,190.305 188.700,190.792 189.800 C 191.788 192.049,192.680 194.116,193.297 195.600 C 193.525 196.150,193.938 197.140,194.214 197.800 C 194.490 198.460,194.915 199.495,195.158 200.100 C 196.250 202.817,197.539 205.835,198.059 206.895 C 198.246 207.277,198.400 207.952,198.400 208.395 C 198.400 208.838,198.580 209.200,198.800 209.200 C 199.020 209.200,199.200 209.419,199.200 209.687 C 199.200 209.954,199.494 210.943,199.854 211.885 L 200.507 213.596 201.982 212.298 C 204.356 210.209,205.594 209.200,205.784 209.200 C 205.882 209.200,206.555 208.603,207.281 207.873 C 208.006 207.143,209.320 206.020,210.200 205.377 C 211.080 204.734,212.160 203.833,212.600 203.374 C 213.040 202.915,214.300 201.835,215.400 200.973 C 217.840 199.062,221.124 195.934,232.316 184.859 C 243.796 173.498,244.515 173.078,247.573 175.930 C 249.272 177.514,252.596 183.545,254.816 189.071 C 256.097 192.262,257.472 195.435,258.033 196.495 C 258.235 196.877,258.400 197.465,258.400 197.803 C 258.400 198.140,258.850 199.129,259.400 200.000 C 259.950 200.871,260.400 201.751,260.400 201.955 C 260.400 202.159,260.871 203.288,261.448 204.463 C 262.024 205.638,262.638 206.960,262.813 207.400 C 262.988 207.840,263.800 209.640,264.619 211.400 C 266.573 215.602,268.013 218.809,268.391 219.800 C 268.559 220.240,269.189 221.680,269.791 223.000 C 270.393 224.320,271.023 225.760,271.191 226.200 C 271.359 226.640,271.970 227.993,272.548 229.206 C 273.127 230.419,273.600 231.636,273.600 231.911 C 273.600 232.186,273.760 232.723,273.956 233.105 C 274.338 233.852,275.215 235.862,276.005 237.800 C 276.273 238.460,276.652 239.313,276.847 239.695 C 277.041 240.077,277.202 240.617,277.204 240.895 C 277.206 241.173,277.650 242.300,278.191 243.400 C 278.732 244.500,279.181 245.704,279.187 246.076 C 279.194 246.448,279.380 246.864,279.600 247.000 C 279.820 247.136,280.000 247.652,280.000 248.147 C 280.000 251.124,281.500 250.750,285.798 246.704 C 286.677 245.877,287.504 245.200,287.637 245.200 C 287.876 245.200,288.710 244.521,291.000 242.459 C 291.660 241.865,292.917 240.844,293.794 240.190 C 294.670 239.535,295.850 238.550,296.415 238.000 C 296.981 237.450,298.063 236.520,298.822 235.934 C 299.580 235.348,300.740 234.388,301.400 233.802 C 302.060 233.216,303.545 232.025,304.700 231.156 C 305.855 230.286,306.804 229.445,306.809 229.287 C 306.814 229.129,307.623 228.460,308.608 227.800 C 309.593 227.140,310.399 226.465,310.399 226.300 C 310.400 226.135,310.592 226.000,310.827 226.000 C 311.062 226.000,311.848 225.370,312.574 224.600 C 313.300 223.830,314.079 223.200,314.305 223.200 C 314.531 223.200,319.577 218.367,325.518 212.460 C 336.345 201.694,339.486 198.800,340.341 198.800 C 340.594 198.800,340.800 198.620,340.800 198.400 C 340.800 197.332,343.572 198.037,345.146 199.504 C 346.679 200.933,349.600 205.847,349.600 206.996 C 349.600 207.291,349.735 207.593,349.900 207.667 C 350.397 207.888,351.600 210.410,351.600 211.232 C 351.600 211.655,351.780 212.000,352.000 212.000 C 352.220 212.000,352.400 212.450,352.400 213.000 C 352.400 213.550,352.535 214.001,352.700 214.001 C 352.865 214.002,353.331 214.857,353.736 215.901 C 354.881 218.857,355.043 219.242,356.209 221.800 C 356.811 223.120,357.482 224.650,357.700 225.200 C 357.919 225.750,358.377 226.740,358.719 227.400 C 359.526 228.957,359.819 229.583,360.311 230.800 C 360.797 232.004,362.748 236.323,363.245 237.295 C 363.440 237.677,363.600 238.184,363.600 238.423 C 363.600 238.662,363.847 239.104,364.149 239.406 C 364.451 239.709,364.941 240.776,365.237 241.778 C 365.533 242.780,365.915 243.600,366.087 243.600 C 366.259 243.600,366.400 243.775,366.400 243.989 C 366.400 244.203,366.850 245.373,367.400 246.589 C 367.950 247.805,368.850 249.795,369.400 251.011 C 369.950 252.227,370.400 253.399,370.400 253.616 C 370.400 253.833,370.559 254.323,370.753 254.705 C 370.948 255.087,371.327 255.940,371.595 256.600 C 372.385 258.538,373.262 260.548,373.644 261.295 C 373.840 261.677,374.000 262.228,374.000 262.520 C 374.000 262.812,374.450 263.983,375.000 265.123 C 375.550 266.263,376.000 267.456,376.000 267.774 C 376.000 268.093,376.180 268.464,376.400 268.600 C 376.620 268.736,376.800 269.377,376.800 270.024 C 376.800 270.671,376.943 271.200,377.117 271.200 C 377.292 271.200,377.778 272.235,378.198 273.500 C 378.619 274.765,379.095 276.070,379.257 276.400 C 379.419 276.730,379.667 277.540,379.808 278.200 C 380.040 279.282,380.115 279.331,380.572 278.706 C 380.851 278.324,381.196 278.130,381.340 278.273 C 381.483 278.416,381.600 277.873,381.600 277.067 C 381.600 276.030,381.776 275.600,382.200 275.600 C 382.569 275.600,382.800 275.225,382.800 274.624 C 382.800 274.087,382.980 273.536,383.200 273.400 C 383.420 273.264,383.600 272.623,383.600 271.976 C 383.600 271.329,383.780 270.800,384.000 270.800 C 384.220 270.800,384.400 270.365,384.400 269.832 C 384.400 268.854,385.547 266.312,386.100 266.067 C 386.265 265.993,386.400 265.318,386.400 264.567 C 386.400 263.815,386.580 263.200,386.800 263.200 C 387.020 263.200,387.200 262.570,387.200 261.800 C 387.200 260.822,387.381 260.400,387.800 260.400 C 388.233 260.400,388.400 259.956,388.400 258.800 C 388.400 257.920,388.580 257.200,388.800 257.200 C 389.020 257.200,389.200 256.480,389.200 255.600 C 389.200 254.720,389.380 254.000,389.600 254.000 C 389.820 254.000,390.006 253.325,390.013 252.500 C 390.020 251.675,390.290 250.651,390.613 250.224 C 390.936 249.796,391.200 248.952,391.200 248.347 C 391.200 247.742,391.380 247.136,391.600 247.000 C 391.820 246.864,392.000 245.763,392.000 244.553 C 392.000 243.188,392.152 242.447,392.400 242.600 C 392.650 242.754,392.800 241.937,392.800 240.424 C 392.800 238.536,392.933 238.000,393.400 238.000 C 393.867 238.000,394.000 237.467,394.000 235.600 C 394.000 234.267,394.178 233.200,394.400 233.200 C 394.628 233.200,394.800 232.008,394.800 230.424 C 394.800 228.897,394.980 227.536,395.200 227.400 C 395.425 227.261,395.600 225.329,395.600 222.976 C 395.600 219.849,395.726 218.825,396.100 218.900 C 396.493 218.979,396.622 214.844,396.701 199.500 C 396.788 182.786,396.720 180.000,396.228 180.000 C 395.787 180.000,395.608 179.151,395.449 176.300 C 395.335 174.265,395.049 171.070,394.813 169.200 C 394.577 167.330,394.280 164.843,394.153 163.673 C 394.014 162.390,393.700 161.460,393.361 161.330 C 392.967 161.179,392.800 160.411,392.800 158.757 C 392.800 157.452,392.621 156.400,392.400 156.400 C 392.180 156.400,392.000 155.601,392.000 154.624 C 392.000 153.647,391.820 152.736,391.600 152.600 C 391.380 152.464,391.200 151.721,391.200 150.948 C 391.200 150.175,390.930 149.273,390.600 148.943 C 390.270 148.613,390.000 147.636,390.000 146.771 C 390.000 145.907,389.820 145.200,389.600 145.200 C 389.380 145.200,389.200 144.585,389.200 143.833 C 389.200 143.082,389.036 142.407,388.834 142.333 C 388.633 142.260,388.395 141.390,388.305 140.400 C 388.204 139.299,387.958 138.639,387.670 138.700 C 387.371 138.764,387.200 138.210,387.200 137.176 C 387.200 136.196,387.042 135.651,386.800 135.800 C 386.465 136.007,386.172 134.242,386.353 133.100 C 386.379 132.935,386.220 132.800,386.000 132.800 C 385.780 132.800,385.600 132.474,385.600 132.076 C 385.600 131.679,385.336 131.004,385.013 130.576 C 384.690 130.149,384.420 129.384,384.413 128.876 C 384.406 128.365,384.222 128.063,384.000 128.200 C 383.762 128.347,383.600 127.879,383.600 127.047 C 383.600 126.277,383.420 125.536,383.200 125.400 C 382.980 125.264,382.800 124.803,382.800 124.376 C 382.800 123.949,382.530 123.600,382.200 123.600 C 381.781 123.600,381.600 123.178,381.600 122.200 C 381.600 121.430,381.420 120.800,381.200 120.800 C 380.980 120.800,380.800 120.369,380.800 119.843 C 380.800 119.316,380.530 118.782,380.200 118.655 C 379.870 118.529,379.600 118.059,379.600 117.613 C 379.600 117.166,379.420 116.800,379.200 116.800 C 378.980 116.800,378.800 116.440,378.800 116.000 C 378.800 115.560,378.620 115.200,378.400 115.200 C 378.180 115.200,378.000 114.750,378.000 114.200 C 378.000 113.578,377.773 113.200,377.400 113.200 C 377.000 113.200,376.800 112.800,376.800 112.000 C 376.800 111.340,376.620 110.800,376.400 110.800 C 376.180 110.800,376.000 110.440,376.000 110.000 C 376.000 109.560,375.820 109.200,375.600 109.200 C 375.380 109.200,375.200 108.840,375.200 108.400 C 375.200 107.956,374.933 107.600,374.600 107.600 C 374.227 107.600,374.000 107.222,374.000 106.600 C 374.000 106.050,373.820 105.600,373.600 105.600 C 373.380 105.600,373.200 105.139,373.200 104.576 C 373.200 103.996,373.027 103.660,372.800 103.800 C 372.573 103.940,372.400 103.604,372.400 103.024 C 372.400 102.380,372.177 102.000,371.800 102.000 C 371.467 102.000,371.200 101.644,371.200 101.200 C 371.200 100.760,371.020 100.400,370.800 100.400 C 370.580 100.400,370.400 100.130,370.400 99.800 C 370.400 99.470,370.220 99.200,370.000 99.200 C 369.780 99.200,369.600 98.834,369.600 98.387 C 369.600 97.941,369.330 97.471,369.000 97.345 C 368.670 97.218,368.400 96.774,368.400 96.357 C 368.400 95.941,368.220 95.600,368.000 95.600 C 367.780 95.600,367.600 95.345,367.600 95.033 C 367.600 94.722,367.412 94.404,367.182 94.327 C 366.952 94.251,366.734 93.781,366.696 93.284 C 366.655 92.729,366.430 92.456,366.114 92.578 C 365.781 92.705,365.600 92.428,365.600 91.787 C 365.600 91.244,365.420 90.800,365.200 90.800 C 364.980 90.800,364.800 90.519,364.800 90.176 C 364.800 89.833,364.620 89.664,364.400 89.800 C 364.180 89.936,364.000 89.776,364.000 89.444 C 364.000 89.113,363.550 88.356,363.000 87.762 C 362.450 87.169,362.000 86.349,362.000 85.942 C 362.000 85.534,361.783 85.245,361.518 85.300 C 361.253 85.355,361.028 85.190,361.018 84.934 C 361.008 84.677,360.595 84.116,360.100 83.687 C 359.605 83.257,359.200 82.522,359.200 82.053 C 359.200 81.547,358.946 81.200,358.576 81.200 C 358.233 81.200,358.064 81.020,358.200 80.800 C 358.336 80.580,358.197 80.400,357.891 80.400 C 357.585 80.400,357.085 79.905,356.780 79.300 C 356.474 78.695,355.949 77.916,355.612 77.570 C 355.276 77.223,354.640 76.438,354.200 75.826 C 353.760 75.213,353.175 74.474,352.900 74.184 C 352.625 73.894,352.400 73.504,352.400 73.317 C 352.400 73.130,352.040 72.717,351.600 72.400 C 351.160 72.083,350.800 71.593,350.800 71.312 C 350.800 71.030,350.612 70.800,350.382 70.800 C 349.768 70.800,347.942 68.870,347.809 68.080 C 347.745 67.706,347.493 67.445,347.247 67.500 C 347.001 67.555,346.800 67.330,346.800 67.000 C 346.800 66.670,346.620 66.400,346.400 66.400 C 346.180 66.400,346.000 66.160,346.000 65.868 C 346.000 65.575,345.550 65.094,345.000 64.800 C 344.450 64.506,344.000 64.025,344.000 63.732 C 344.000 63.440,343.865 63.196,343.700 63.191 C 343.194 63.175,340.400 60.507,340.400 60.039 C 340.400 59.798,340.207 59.600,339.971 59.600 C 339.505 59.600,338.400 58.615,338.400 58.200 C 338.400 57.872,337.336 56.800,337.010 56.800 C 336.689 56.800,334.800 54.911,334.800 54.590 C 334.800 54.183,333.689 53.200,333.229 53.200 C 332.993 53.200,332.800 52.900,332.800 52.533 C 332.800 52.167,332.681 51.985,332.536 52.131 C 332.391 52.276,331.609 51.676,330.797 50.797 C 329.986 49.919,329.107 49.200,328.843 49.200 C 328.308 49.200,326.400 47.416,326.400 46.916 C 326.400 46.740,325.859 46.356,325.198 46.063 C 324.536 45.770,324.100 45.362,324.227 45.156 C 324.355 44.949,324.311 44.806,324.130 44.837 C 323.252 44.990,322.400 44.755,322.400 44.360 C 322.400 43.690,319.779 41.402,317.900 40.432 C 317.295 40.120,316.800 39.615,316.800 39.309 C 316.800 39.003,316.640 38.851,316.445 38.972 C 316.250 39.093,315.868 38.923,315.596 38.596 C 315.324 38.268,314.854 38.000,314.551 38.000 C 314.248 38.000,314.000 37.820,314.000 37.600 C 314.000 37.380,313.730 37.200,313.400 37.200 C 313.070 37.200,312.845 36.979,312.900 36.709 C 312.955 36.440,312.595 36.157,312.100 36.082 C 311.605 36.006,311.200 35.777,311.200 35.572 C 311.200 35.367,310.919 35.200,310.576 35.200 C 310.233 35.200,310.064 35.020,310.200 34.800 C 310.336 34.580,310.057 34.400,309.581 34.400 C 309.105 34.400,308.361 33.950,307.929 33.400 C 307.496 32.850,306.799 32.400,306.380 32.400 C 305.961 32.400,305.318 31.941,304.950 31.380 C 304.569 30.798,304.043 30.452,303.726 30.573 C 303.420 30.691,303.067 30.520,302.942 30.193 C 302.817 29.867,302.376 29.600,301.962 29.600 C 301.072 29.600,299.552 28.401,299.844 27.929 C 299.956 27.748,299.682 27.600,299.236 27.600 C 298.789 27.600,297.783 27.240,297.000 26.800 C 296.217 26.360,295.330 26.000,295.031 26.000 C 294.731 26.000,294.382 25.730,294.255 25.400 C 294.129 25.070,293.749 24.800,293.413 24.800 C 293.076 24.800,292.799 24.665,292.797 24.500 C 292.793 24.152,290.865 23.200,290.163 23.200 C 289.900 23.200,289.582 22.930,289.455 22.600 C 289.329 22.270,288.859 22.000,288.413 22.000 C 287.966 22.000,287.600 21.820,287.600 21.600 C 287.600 21.380,287.285 21.194,286.900 21.187 C 286.515 21.180,285.868 20.923,285.461 20.615 C 285.055 20.307,284.440 20.163,284.096 20.295 C 283.679 20.455,283.567 20.377,283.761 20.063 C 283.953 19.753,283.634 19.507,282.833 19.347 C 282.162 19.212,281.711 18.945,281.830 18.751 C 281.950 18.558,281.407 18.400,280.624 18.400 C 279.599 18.400,279.200 18.225,279.200 17.775 C 279.200 17.356,278.903 17.191,278.300 17.275 C 277.745 17.352,277.438 17.209,277.500 16.900 C 277.559 16.607,277.187 16.400,276.600 16.400 C 276.050 16.400,275.600 16.220,275.600 16.000 C 275.600 15.780,274.970 15.600,274.200 15.600 C 273.279 15.600,272.800 15.412,272.800 15.050 C 272.800 14.719,272.369 14.500,271.717 14.500 C 271.121 14.500,270.566 14.297,270.483 14.050 C 270.401 13.803,269.808 13.600,269.167 13.600 C 268.525 13.600,268.000 13.420,268.000 13.200 C 268.000 12.980,267.370 12.800,266.600 12.800 C 265.725 12.800,265.200 12.607,265.200 12.285 C 265.200 11.992,264.644 11.728,263.907 11.672 C 263.195 11.617,262.439 11.399,262.227 11.187 C 262.014 10.974,261.372 10.800,260.800 10.800 C 260.228 10.800,259.589 10.634,259.380 10.431 C 259.171 10.228,258.460 10.003,257.800 9.931 C 257.140 9.859,256.633 9.612,256.672 9.383 C 256.712 9.154,256.179 8.923,255.488 8.870 C 254.797 8.818,254.134 8.645,254.016 8.487 C 253.897 8.329,253.080 8.139,252.200 8.065 C 251.320 7.991,250.429 7.766,250.220 7.565 C 250.011 7.364,249.066 7.200,248.120 7.200 C 246.972 7.200,246.400 7.026,246.400 6.678 C 246.400 6.347,245.783 6.120,244.715 6.057 C 243.789 6.002,242.844 5.817,242.615 5.646 C 242.387 5.474,241.300 5.290,240.200 5.236 C 239.100 5.182,238.029 4.972,237.820 4.769 C 237.611 4.566,236.591 4.400,235.553 4.400 C 233.407 4.400,232.302 4.082,232.626 3.558 C 232.749 3.359,231.502 3.200,229.824 3.200 C 228.161 3.200,226.800 3.044,226.800 2.853 C 226.800 2.661,225.135 2.472,223.100 2.432 C 221.065 2.392,219.340 2.189,219.267 1.980 C 219.080 1.449,180.528 1.469,180.200 2.000 " stroke="none" fill="#dbebfb" fill-rule="evenodd"></path><path id="path4" d="M85.000 95.827 C 84.560 96.158,79.790 100.787,74.400 106.115 C 63.458 116.930,60.807 119.332,49.368 128.784 C 44.986 132.406,39.420 137.008,37.000 139.011 C 34.580 141.014,28.010 146.453,22.400 151.097 C 16.790 155.741,10.806 160.724,9.102 162.170 C 7.398 163.617,5.823 164.800,5.602 164.800 C 5.381 164.800,5.200 165.070,5.200 165.400 C 5.200 165.730,5.020 166.000,4.800 166.000 C 4.567 166.000,4.400 167.319,4.400 169.157 C 4.400 171.526,4.257 172.369,3.828 172.534 C 2.795 172.930,1.790 217.950,2.792 218.952 C 3.017 219.177,3.200 220.950,3.200 222.893 C 3.200 225.664,3.329 226.475,3.800 226.655 C 4.263 226.833,4.400 227.605,4.400 230.043 C 4.400 231.881,4.567 233.200,4.800 233.200 C 5.022 233.200,5.200 234.267,5.200 235.600 C 5.200 236.933,5.378 238.000,5.600 238.000 C 5.820 238.000,6.000 238.887,6.000 239.971 C 6.000 241.190,6.229 242.172,6.600 242.543 C 6.937 242.880,7.200 243.857,7.200 244.771 C 7.200 245.667,7.380 246.400,7.600 246.400 C 7.820 246.400,8.000 247.199,8.000 248.176 C 8.000 249.153,8.180 250.064,8.400 250.200 C 8.620 250.336,8.800 251.054,8.800 251.795 C 8.800 252.536,9.070 253.413,9.400 253.743 C 9.730 254.073,10.000 254.975,10.000 255.748 C 10.000 256.521,10.180 257.264,10.400 257.400 C 10.620 257.536,10.800 258.166,10.800 258.800 C 10.800 259.434,10.980 260.064,11.200 260.200 C 11.420 260.336,11.600 260.874,11.600 261.395 C 11.600 261.916,11.870 262.613,12.200 262.943 C 12.530 263.273,12.800 264.096,12.800 264.771 C 12.800 265.447,12.980 266.000,13.200 266.000 C 13.420 266.000,13.600 266.369,13.600 266.820 C 13.600 267.271,13.863 268.148,14.184 268.769 C 14.505 269.390,14.660 270.007,14.527 270.140 C 14.394 270.273,14.581 270.495,14.943 270.633 C 15.377 270.800,15.600 271.355,15.600 272.270 C 15.600 273.422,17.027 274.034,17.420 273.050 C 17.952 271.718,46.671 242.794,52.000 238.223 C 52.990 237.374,55.067 235.491,56.616 234.040 C 58.164 232.588,60.954 230.058,62.816 228.419 C 64.677 226.779,66.491 225.159,66.846 224.819 C 67.202 224.478,69.178 222.760,71.238 221.000 C 73.297 219.240,75.886 216.980,76.991 215.977 C 81.747 211.662,94.198 201.232,103.800 193.520 C 105.340 192.283,108.400 189.798,110.600 187.997 C 112.800 186.196,115.310 184.155,116.177 183.461 C 117.044 182.768,119.204 181.027,120.977 179.594 C 122.750 178.161,124.769 176.541,125.465 175.994 C 126.531 175.156,129.352 172.797,137.397 166.010 C 139.434 164.292,144.991 158.933,153.055 150.908 C 166.918 137.113,166.362 137.059,173.783 152.941 C 174.782 155.080,175.600 156.913,175.600 157.014 C 175.600 157.115,176.123 158.323,176.762 159.699 C 178.564 163.578,180.000 166.808,180.000 166.983 C 180.000 167.070,180.630 168.505,181.400 170.172 C 182.170 171.839,182.800 173.280,182.800 173.374 C 182.800 173.468,183.317 174.682,183.948 176.072 C 184.580 177.462,186.039 180.760,187.191 183.400 C 188.344 186.040,189.807 189.338,190.443 190.728 C 191.079 192.118,191.600 193.335,191.600 193.432 C 191.600 193.529,191.947 194.372,192.371 195.304 C 192.796 196.237,194.254 199.790,195.613 203.200 C 196.972 206.610,198.334 209.967,198.642 210.660 C 198.949 211.354,199.200 212.079,199.200 212.271 C 199.200 214.659,200.398 214.418,204.051 211.293 C 209.374 206.740,211.876 204.637,214.986 202.101 C 218.492 199.241,224.090 193.922,233.848 184.178 C 243.259 174.780,244.607 174.002,247.329 176.391 C 248.757 177.645,251.951 183.703,254.611 190.200 C 255.422 192.180,256.516 194.750,257.043 195.912 C 257.569 197.073,258.000 198.095,258.000 198.183 C 258.000 198.270,258.607 199.660,259.349 201.271 C 260.091 202.882,261.102 205.100,261.596 206.200 C 262.091 207.300,263.483 210.360,264.690 213.000 C 269.731 224.022,274.553 235.504,278.215 245.200 C 280.905 252.326,279.850 252.367,289.053 244.776 C 297.012 238.212,298.529 236.947,299.353 236.189 C 299.599 235.963,301.420 234.440,303.400 232.806 C 305.380 231.172,307.090 229.737,307.200 229.617 C 307.310 229.498,308.265 228.705,309.322 227.855 C 310.379 227.006,311.156 226.223,311.048 226.115 C 310.941 226.008,310.436 226.312,309.926 226.791 C 309.417 227.270,308.505 227.957,307.900 228.317 C 307.295 228.678,306.800 229.108,306.800 229.274 C 306.800 229.439,305.855 230.286,304.700 231.156 C 303.545 232.025,302.060 233.216,301.400 233.802 C 300.740 234.388,299.580 235.348,298.822 235.934 C 298.063 236.520,296.981 237.450,296.415 238.000 C 295.850 238.550,294.670 239.535,293.794 240.190 C 292.917 240.844,291.660 241.865,291.000 242.459 C 288.710 244.521,287.876 245.200,287.637 245.200 C 287.504 245.200,286.677 245.877,285.798 246.704 C 281.500 250.750,280.000 251.124,280.000 248.147 C 280.000 247.652,279.820 247.136,279.600 247.000 C 279.380 246.864,279.194 246.448,279.187 246.076 C 279.181 245.704,278.732 244.500,278.191 243.400 C 277.650 242.300,277.206 241.173,277.204 240.895 C 277.202 240.617,277.041 240.077,276.847 239.695 C 276.652 239.313,276.273 238.460,276.005 237.800 C 275.215 235.862,274.338 233.852,273.956 233.105 C 273.760 232.723,273.600 232.186,273.600 231.911 C 273.600 231.636,273.127 230.419,272.548 229.206 C 271.970 227.993,271.359 226.640,271.191 226.200 C 271.023 225.760,270.393 224.320,269.791 223.000 C 269.189 221.680,268.559 220.240,268.391 219.800 C 268.013 218.809,266.573 215.602,264.619 211.400 C 263.800 209.640,262.988 207.840,262.813 207.400 C 262.638 206.960,262.024 205.638,261.448 204.463 C 260.871 203.288,260.400 202.159,260.400 201.955 C 260.400 201.751,259.950 200.871,259.400 200.000 C 258.850 199.129,258.400 198.140,258.400 197.803 C 258.400 197.465,258.235 196.877,258.033 196.495 C 257.472 195.435,256.097 192.262,254.816 189.071 C 252.596 183.545,249.272 177.514,247.573 175.930 C 244.515 173.078,243.796 173.498,232.316 184.859 C 221.124 195.934,217.840 199.062,215.400 200.973 C 214.300 201.835,213.040 202.915,212.600 203.374 C 212.160 203.833,211.080 204.734,210.200 205.377 C 209.320 206.020,208.006 207.143,207.281 207.873 C 206.555 208.603,205.882 209.200,205.784 209.200 C 205.594 209.200,204.356 210.209,201.982 212.298 L 200.507 213.596 199.854 211.885 C 199.494 210.943,199.200 209.954,199.200 209.687 C 199.200 209.419,199.020 209.200,198.800 209.200 C 198.580 209.200,198.400 208.838,198.400 208.395 C 198.400 207.952,198.246 207.277,198.059 206.895 C 197.538 205.834,195.751 201.664,195.104 200.000 C 194.891 199.450,194.490 198.460,194.214 197.800 C 193.938 197.140,193.525 196.150,193.296 195.600 C 193.067 195.050,192.484 193.700,192.001 192.600 C 191.518 191.500,190.891 190.060,190.608 189.400 C 190.325 188.740,189.695 187.300,189.208 186.200 C 188.721 185.100,188.052 183.570,187.721 182.800 C 187.391 182.030,186.669 180.410,186.117 179.200 C 185.566 177.990,184.973 176.640,184.800 176.200 C 184.627 175.760,184.034 174.410,183.483 173.200 C 182.931 171.990,182.183 170.280,181.820 169.400 C 181.458 168.520,180.990 167.487,180.781 167.105 C 180.571 166.723,180.400 166.138,180.400 165.805 C 180.400 165.472,180.220 165.200,180.000 165.200 C 179.780 165.200,179.600 164.928,179.600 164.595 C 179.600 164.262,179.436 163.677,179.236 163.295 C 178.822 162.506,177.178 158.895,176.279 156.800 C 167.436 136.198,167.139 136.092,154.263 148.912 C 150.016 153.140,144.500 158.490,142.005 160.800 C 139.510 163.110,137.092 165.360,136.631 165.800 C 136.171 166.240,135.076 167.130,134.197 167.777 C 133.319 168.424,132.027 169.549,131.327 170.277 C 130.627 171.005,129.907 171.600,129.727 171.601 C 129.547 171.601,128.410 172.495,127.200 173.586 C 124.357 176.151,124.181 176.002,122.028 169.200 C 120.258 163.609,109.765 138.581,101.903 121.201 C 100.976 119.150,99.043 114.672,96.788 109.353 C 91.798 97.580,88.184 93.433,85.000 95.827 M340.800 198.400 C 340.800 198.620,340.594 198.800,340.341 198.800 C 339.336 198.800,318.000 219.302,318.000 220.268 C 318.000 220.438,322.095 216.524,327.100 211.570 C 342.970 195.861,343.537 195.662,347.846 204.265 C 348.657 205.886,349.411 207.123,349.519 207.014 C 349.964 206.569,346.939 201.296,345.327 199.707 C 343.646 198.050,340.800 197.228,340.800 198.400 M349.600 207.748 C 349.600 208.493,352.353 213.607,352.374 212.900 C 352.388 212.405,352.220 212.000,352.000 212.000 C 351.780 212.000,351.600 211.699,351.600 211.331 C 351.600 210.477,350.296 207.624,349.900 207.610 C 349.735 207.605,349.600 207.667,349.600 207.748 M352.400 214.204 C 352.400 214.317,352.781 215.262,353.247 216.304 C 353.712 217.347,354.315 218.740,354.587 219.400 C 355.923 222.644,357.761 226.373,357.937 226.197 C 358.046 226.088,357.948 225.594,357.719 225.099 C 355.352 219.976,354.997 219.156,353.736 215.901 C 353.123 214.321,352.400 213.402,352.400 214.204 M315.600 222.200 C 315.083 222.750,314.498 223.200,314.300 223.200 C 314.101 223.200,313.398 223.740,312.738 224.400 C 310.997 226.141,311.762 225.870,314.144 223.902 C 316.861 221.658,317.327 221.200,316.898 221.200 C 316.701 221.200,316.117 221.650,315.600 222.200 M358.000 226.968 C 358.000 227.166,358.810 228.960,362.117 236.085 C 362.802 237.562,363.446 238.687,363.549 238.585 C 363.651 238.482,363.548 237.994,363.319 237.499 C 362.019 234.687,360.662 231.673,360.301 230.800 C 359.184 228.096,358.000 226.125,358.000 226.968 M363.600 239.520 C 363.600 239.696,363.751 240.011,363.936 240.220 C 364.121 240.429,364.514 241.230,364.810 242.000 C 365.106 242.770,366.035 244.896,366.874 246.724 C 367.713 248.552,368.400 250.129,368.400 250.228 C 368.400 250.327,368.744 251.172,369.165 252.104 C 369.586 253.037,370.855 256.140,371.985 259.000 C 374.055 264.242,374.350 264.978,375.110 266.800 C 375.339 267.350,375.804 268.520,376.143 269.400 C 376.690 270.822,376.761 270.880,376.779 269.924 C 376.791 269.332,376.620 268.736,376.400 268.600 C 376.180 268.464,376.000 268.093,376.000 267.774 C 376.000 267.456,375.550 266.263,375.000 265.123 C 374.450 263.983,374.000 262.812,374.000 262.520 C 374.000 262.228,373.840 261.677,373.644 261.295 C 373.262 260.548,372.385 258.538,371.595 256.600 C 371.327 255.940,370.948 255.087,370.753 254.705 C 370.559 254.323,370.400 253.833,370.400 253.616 C 370.400 253.399,369.950 252.227,369.400 251.011 C 368.850 249.795,367.950 247.805,367.400 246.589 C 366.850 245.373,366.400 244.203,366.400 243.989 C 366.400 243.775,366.220 243.600,366.000 243.600 C 365.780 243.600,365.600 243.381,365.600 243.113 C 365.600 242.263,364.305 239.200,363.946 239.200 C 363.756 239.200,363.600 239.344,363.600 239.520 M376.999 271.900 C 377.156 272.285,377.707 273.747,378.224 275.149 C 378.741 276.550,379.262 277.795,379.382 277.915 C 379.737 278.271,379.630 276.594,379.271 276.180 C 379.090 275.971,378.602 274.765,378.188 273.500 C 377.773 272.235,377.272 271.200,377.074 271.200 C 376.876 271.200,376.842 271.515,376.999 271.900 M379.866 279.133 C 379.940 279.426,380.000 279.841,380.000 280.056 C 380.000 280.271,380.180 280.336,380.400 280.200 C 380.620 280.064,380.800 279.683,380.800 279.353 C 380.800 279.023,380.635 278.855,380.434 278.979 C 380.233 279.103,379.992 279.069,379.900 278.902 C 379.807 278.736,379.792 278.840,379.866 279.133 " stroke="none" fill="#b3d4fc" fill-rule="evenodd"></path></g></svg>